<?xml version="1.0" encoding="UTF-8" standalone="no"?>
<svg
   xmlns:dc="http://purl.org/dc/elements/1.1/"
   xmlns:cc="http://creativecommons.org/ns#"
   xmlns:rdf="http://www.w3.org/1999/02/22-rdf-syntax-ns#"
   xmlns:svg="http://www.w3.org/2000/svg"
   xmlns="http://www.w3.org/2000/svg"
   xmlns:sodipodi="http://sodipodi.sourceforge.net/DTD/sodipodi-0.dtd"
   xmlns:inkscape="http://www.inkscape.org/namespaces/inkscape"
   id="svg1"
   sodipodi:docname="stylizedtape.svg"
   viewBox="0 0 274.99999 180"
   sodipodi:version="0.32"
   _SVGFile__filename="oldscale/apps/konserve.svg"
   version="1.0"
   y="0"
   x="0"
   inkscape:version="0.91 r13725"
   width="275"
   height="180">
  <defs
     id="defs121352" />
  <sodipodi:namedview
     id="base"
     bordercolor="#666666"
     inkscape:pageshadow="2"
     inkscape:window-y="0"
     pagecolor="#ffffff"
     inkscape:window-height="699"
     inkscape:zoom="1.1544418"
     inkscape:window-x="0"
     borderopacity="1.0"
     inkscape:current-layer="g121895"
     inkscape:cx="43.736904"
     inkscape:cy="120.93382"
     inkscape:window-width="1024"
     inkscape:pageopacity="0.0000000"
     showgrid="false"
     inkscape:window-maximized="0"
     fit-margin-top="0"
     fit-margin-left="0"
     fit-margin-right="0"
     fit-margin-bottom="0" />
  <g
     id="g1747"
     transform="matrix(1.2290015,0,0,1.391447,-4.2398576,-25.666822)">
    <g
       id="g1717"
       transform="matrix(1.0194,0,0,1.0194,-0.07011,-1.1045)">
      <g
         id="g121895">
        <g
           id="g121906"
           transform="matrix(3.9872598,0,0,3.7772066,-6.1995606,-71.40429)">
          <path
             id="rect745"
             style="fill:#ffffff;fill-rule:evenodd;stroke:#000000;stroke-width:3.14199996;stroke-linecap:round;stroke-linejoin:round"
             d="m 6.199,6.1771 c -1.108,0 -2,0.892 -2,2 l 0,25.774 c 0,1.108 0.892,2 2,2 l 46.896,0 c 1.108,0 2,-0.892 2,-2 l 0,-25.774 c 0,-1.1079 -0.892,-1.9999 -2,-1.9999 l -46.896,0 z"
             transform="matrix(0.97566,0,0,0.97566,1.0746,20.238)"
             inkscape:connector-curvature="0" />
          <path
             id="path746"
             style="fill:#ffffff;fill-rule:evenodd;stroke:#000000;stroke-width:3.06550002;stroke-linecap:round;stroke-linejoin:round"
             d="m 12.792,55.19 4.342,-7.522 25.576,0 4.498,7.544 -34.416,-0.022 z"
             inkscape:connector-curvature="0" />
          <g
             id="g1544"
             transform="matrix(0.97566,0,0,0.97566,0.8263,0.86122)">
            <path
               id="path747"
               style="fill:#ffffff;fill-rule:evenodd;stroke:#000000;stroke-width:2.07115722;stroke-linecap:round;stroke-linejoin:round"
               d="m 21.954214,36.283968 c 0,2.831189 -2.596384,5.128507 -5.795438,5.128507 -3.199755,0 -5.796069,-2.297318 -5.796069,-5.128507 0,-2.83057 2.596314,-5.127888 5.796069,-5.127888 3.199054,0 5.795438,2.297318 5.795438,5.127888 z"
               inkscape:connector-curvature="0" />
            <path
               id="path749"
               style="fill:#ffffff;fill-rule:evenodd;stroke:#000000;stroke-width:1.24269438;stroke-linecap:round;stroke-linejoin:round"
               d="m 18.967482,36.283968 c 0,1.37157 -1.258598,2.485196 -2.80872,2.485196 -1.550543,0 -2.808861,-1.113626 -2.808861,-2.485196 0,-1.372191 1.258318,-2.485197 2.808861,-2.485197 1.550122,0 2.80872,1.113006 2.80872,2.485197 z"
               inkscape:connector-curvature="0" />
          </g>
          <g
             id="g1541"
             transform="matrix(0.68372155,0,0,0.60496673,14.489467,12.121047)">
            <path
               id="path748"
               style="fill:#ffffff;fill-rule:evenodd;stroke:#000000;stroke-width:3.14199996;stroke-linecap:round;stroke-linejoin:round"
               d="m 25.066,20.046 c 0,4.566 -3.705,8.271 -8.27,8.271 -4.566,0 -8.2709,-3.705 -8.2709,-8.271 0,-4.565 3.7049,-8.27 8.2709,-8.27 4.565,0 8.27,3.705 8.27,8.27 z"
               transform="translate(25.253,19.606)"
               inkscape:connector-curvature="0" />
            <path
               id="path750"
               style="fill:#ffffff;fill-rule:evenodd;stroke:#000000;stroke-width:1.88520002;stroke-linecap:round;stroke-linejoin:round"
               d="m 14.76,51.157 c 0,2.212 -1.796,4.008 -4.008,4.008 -2.2126,0 -4.0082,-1.796 -4.0082,-4.008 0,-2.213 1.7956,-4.008 4.0082,-4.008 2.212,0 4.008,1.795 4.008,4.008 z"
               transform="translate(31.297,-11.505)"
               inkscape:connector-curvature="0" />
          </g>
        </g>
      </g>
    </g>
  </g>
  <metadata
     id="metadata121350">
    <rdf:RDF>
      <cc:Work>
        <dc:format>image/svg+xml</dc:format>
        <dc:type
           rdf:resource="http://purl.org/dc/dcmitype/StillImage" />
        <cc:license
           rdf:resource="http://creativecommons.org/publicdomain/zero/1.0/" />
        <dc:publisher>
          <cc:Agent
             rdf:about="http://openclipart.org/">
            <dc:title>Openclipart</dc:title>
          </cc:Agent>
        </dc:publisher>
        <dc:title></dc:title>
      </cc:Work>
      <cc:License
         rdf:about="http://creativecommons.org/publicdomain/zero/1.0/">
        <cc:permits
           rdf:resource="http://creativecommons.org/ns#Reproduction" />
        <cc:permits
           rdf:resource="http://creativecommons.org/ns#Distribution" />
        <cc:permits
           rdf:resource="http://creativecommons.org/ns#DerivativeWorks" />
      </cc:License>
    </rdf:RDF>
  </metadata>
</svg>
